2015032_C5_01_grf
version=1
nRows=30
nColumns=19
inDegrees=no
endheader
time	ground_force_1_vx	ground_force_1_vy	ground_force_1_vz	ground_force_1_px	ground_force_1_py	ground_force_1_pz	ground_force_1_mx	ground_force_1_my	ground_force_1_mz	ground_force_2_vx	ground_force_2_vy	ground_force_2_vz	ground_force_2_px	ground_force_2_py	ground_force_2_pz	ground_force_2_mx	ground_force_2_my	ground_force_2_mz
      0.82500000	      0.00000000	      0.00000000	      0.00000000	      0.00000000	      0.00000000	      0.00000000	      0.00000000	      0.00000000	      0.00000000	    -19.50147003	    429.13897336	     -7.17527643	      0.86964345	      0.00000000	     -0.21123764	      0.00000000	      1.27228886	      0.00000000
      0.82600000	      0.00000000	      0.00000000	      0.00000000	      0.00000000	      0.00000000	      0.00000000	      0.00000000	      0.00000000	      0.00000000	    -19.23172697	    427.70739645	     -7.21732527	      0.87012909	      0.00000000	     -0.21096908	      0.00000000	      1.27828407	      0.00000000
      0.82700000	      0.00000000	      0.00000000	      0.00000000	      0.00000000	      0.00000000	      0.00000000	      0.00000000	      0.00000000	      0.00000000	    -18.96752184	    426.29735917	     -7.26172701	      0.87061972	      0.00000000	     -0.21069931	      0.00000000	      1.28424569	      0.00000000
      0.82800000	      0.00000000	      0.00000000	      0.00000000	      0.00000000	      0.00000000	      0.00000000	      0.00000000	      0.00000000	      0.00000000	    -18.70777085	    424.90489781	     -7.30804205	      0.87111421	      0.00000000	     -0.21042862	      0.00000000	      1.29016809	      0.00000000
      0.82900000	      0.00000000	      0.00000000	      0.00000000	      0.00000000	      0.00000000	      0.00000000	      0.00000000	      0.00000000	      0.00000000	    -18.45360557	    423.53477143	     -7.35677704	      0.87161336	      0.00000000	     -0.21015686	      0.00000000	      1.29602423	      0.00000000
      0.83000000	      0.00000000	      0.00000000	      0.00000000	      0.00000000	      0.00000000	      0.00000000	      0.00000000	      0.00000000	      0.00000000	    -18.20390616	    422.18276858	     -7.40745887	      0.87211614	      0.00000000	     -0.20988431	      0.00000000	      1.30181289	      0.00000000
      0.83100000	      0.00000000	      0.00000000	      0.00000000	      0.00000000	      0.00000000	      0.00000000	      0.00000000	      0.00000000	      0.00000000	    -17.95978071	    420.85368745	     -7.46057332	      0.87262330	      0.00000000	     -0.20961088	      0.00000000	      1.30749865	      0.00000000
      0.83200000	      0.00000000	      0.00000000	      0.00000000	      0.00000000	      0.00000000	      0.00000000	      0.00000000	      0.00000000	      0.00000000	    -17.72008929	    419.54317316	     -7.51562715	      0.87313381	      0.00000000	     -0.20933681	      0.00000000	      1.31308821	      0.00000000
      0.83300000	      0.00000000	      0.00000000	      0.00000000	      0.00000000	      0.00000000	      0.00000000	      0.00000000	      0.00000000	      0.00000000	    -17.48590562	    418.25607605	     -7.57308155	      0.87364834	      0.00000000	     -0.20906206	      0.00000000	      1.31854226	      0.00000000
      0.83400000	      0.00000000	      0.00000000	      0.00000000	      0.00000000	      0.00000000	      0.00000000	      0.00000000	      0.00000000	      0.00000000	    -17.25609060	    416.98785871	     -7.63243213	      0.87416598	      0.00000000	     -0.20878687	      0.00000000	      1.32387607	      0.00000000
      0.83500000	      0.00000000	      0.00000000	      0.00000000	      0.00000000	      0.00000000	      0.00000000	      0.00000000	      0.00000000	      0.00000000	    -17.03168107	    415.74347578	     -7.69410320	      0.87468730	      0.00000000	     -0.20851123	      0.00000000	      1.32904821	      0.00000000
      0.83600000	      0.00000000	      0.00000000	      0.00000000	      0.00000000	      0.00000000	      0.00000000	      0.00000000	      0.00000000	      0.00000000	    -16.81155134	    414.51828554	     -7.75757879	      0.87521144	      0.00000000	     -0.20823533	      0.00000000	      1.33408193	      0.00000000
      0.83700000	      0.00000000	      0.00000000	      0.00000000	      0.00000000	      0.00000000	      0.00000000	      0.00000000	      0.00000000	      0.00000000	    -16.59669718	    413.31725568	     -7.82321841	      0.87573890	      0.00000000	     -0.20795921	      0.00000000	      1.33893169	      0.00000000
      0.83800000	      0.00000000	      0.00000000	      0.00000000	      0.00000000	      0.00000000	      0.00000000	      0.00000000	      0.00000000	      0.00000000	    -16.38599541	    412.13567927	     -7.89050460	      0.87626889	      0.00000000	     -0.20768304	      0.00000000	      1.34362433	      0.00000000
      0.83900000	      0.00000000	      0.00000000	      0.00000000	      0.00000000	      0.00000000	      0.00000000	      0.00000000	      0.00000000	      0.00000000	    -16.18037811	    410.97858921	     -7.95973316	      0.87680185	      0.00000000	     -0.20740692	      0.00000000	      1.34810844	      0.00000000
      0.84000000	      0.00000000	      0.00000000	      0.00000000	      0.00000000	      0.00000000	      0.00000000	      0.00000000	      0.00000000	      0.00000000	    -15.97872712	    409.84121338	     -8.03041607	      0.87733706	      0.00000000	     -0.20713097	      0.00000000	      1.35241608	      0.00000000
      0.84100000	      0.00000000	      0.00000000	      0.00000000	      0.00000000	      0.00000000	      0.00000000	      0.00000000	      0.00000000	      0.00000000	    -15.78189237	    408.72858465	     -8.10278133	      0.87787490	      0.00000000	     -0.20685535	      0.00000000	      1.35649211	      0.00000000
      0.84200000	      0.00000000	      0.00000000	      0.00000000	      0.00000000	      0.00000000	      0.00000000	      0.00000000	      0.00000000	      0.00000000	    -15.58878589	    407.63593093	     -8.17637816	      0.87841472	      0.00000000	     -0.20658012	      0.00000000	      1.36037672	      0.00000000
      0.84300000	      0.00000000	      0.00000000	      0.00000000	      0.00000000	      0.00000000	      0.00000000	      0.00000000	      0.00000000	      0.00000000	    -15.40016457	    406.56837635	     -8.25136118	      0.87895682	      0.00000000	     -0.20630550	      0.00000000	      1.36401901	      0.00000000
      0.84400000	      0.00000000	      0.00000000	      0.00000000	      0.00000000	      0.00000000	      0.00000000	      0.00000000	      0.00000000	      0.00000000	    -15.21497983	    405.52103147	     -8.32732841	      0.87950061	      0.00000000	     -0.20603146	      0.00000000	      1.36746689	      0.00000000
      0.84500000	      0.00000000	      0.00000000	      0.00000000	      0.00000000	      0.00000000	      0.00000000	      0.00000000	      0.00000000	      0.00000000	    -15.03388714	    404.49907258	     -8.40436630	      0.88004633	      0.00000000	     -0.20575829	      0.00000000	      1.37067480	      0.00000000
      0.84600000	      0.00000000	      0.00000000	      0.00000000	      0.00000000	      0.00000000	      0.00000000	      0.00000000	      0.00000000	      0.00000000	    -14.85590246	    403.49753201	     -8.48213732	      0.88059345	      0.00000000	     -0.20548591	      0.00000000	      1.37369429	      0.00000000
      0.84700000	      0.00000000	      0.00000000	      0.00000000	      0.00000000	      0.00000000	      0.00000000	      0.00000000	      0.00000000	      0.00000000	    -14.68159743	    402.52171643	     -8.56067315	      0.88114216	      0.00000000	     -0.20521467	      0.00000000	      1.37648340	      0.00000000
      0.84800000	      0.00000000	      0.00000000	      0.00000000	      0.00000000	      0.00000000	      0.00000000	      0.00000000	      0.00000000	      0.00000000	    -14.51007854	    401.56663209	     -8.63969773	      0.88169200	      0.00000000	     -0.20494444	      0.00000000	      1.37909353	      0.00000000
      0.84900000	      0.00000000	      0.00000000	      0.00000000	      0.00000000	      0.00000000	      0.00000000	      0.00000000	      0.00000000	      0.00000000	    -14.34183950	    400.63765086	     -8.71916786	      0.88224304	      0.00000000	     -0.20467562	      0.00000000	      1.38148792	      0.00000000
      0.85000000	      0.00000000	      0.00000000	      0.00000000	      0.00000000	      0.00000000	      0.00000000	      0.00000000	      0.00000000	      0.00000000	    -14.17605635	    399.72976595	     -8.79885629	      0.88279492	      0.00000000	     -0.20440801	      0.00000000	      1.38371742	      0.00000000
      0.85100000	      0.00000000	      0.00000000	      0.00000000	      0.00000000	      0.00000000	      0.00000000	      0.00000000	      0.00000000	      0.00000000	    -14.01313394	    398.84853177	     -8.87864046	      0.88334762	      0.00000000	     -0.20414204	      0.00000000	      1.38575399	      0.00000000
      0.85200000	      0.00000000	      0.00000000	      0.00000000	      0.00000000	      0.00000000	      0.00000000	      0.00000000	      0.00000000	      0.00000000	    -13.85233551	    397.98886329	     -8.95836502	      0.88390082	      0.00000000	     -0.20387744	      0.00000000	      1.38764922	      0.00000000
      0.85300000	      0.00000000	      0.00000000	      0.00000000	      0.00000000	      0.00000000	      0.00000000	      0.00000000	      0.00000000	      0.00000000	    -13.69398627	    397.15649746	     -9.03784931	      0.88445441	      0.00000000	     -0.20361467	      0.00000000	      1.38938761	      0.00000000
      0.85400000	      0.00000000	      0.00000000	      0.00000000	      0.00000000	      0.00000000	      0.00000000	      0.00000000	      0.00000000	      0.00000000	    -13.53743244	    396.34619281	     -9.11700949	      0.88500813	      0.00000000	     -0.20335340	      0.00000000	      1.39101884	      0.00000000
